<svg xmlns="http://www.w3.org/2000/svg" width="58" height="100.23"><rect width="100%" height="100%" fill="#2b2b31"/><path fill="none" stroke="#ecc94b" stroke-linecap="square" d="m12.127 73.813.013 5.643 4.893-2.81zm-6.01-3.47 16.928 9.773-16.93 9.777zm-6.02-3.476 28.967 16.725L.13 100.262zm16.97 23.616-.015 5.643-4.893-2.81zm6.01-3.472L6.148 96.786l16.93 9.776zM.128 100.261l28.935 16.669m16.874-23.67-.013-5.644-4.894 2.81zm6.01 3.47L35.02 86.956l16.931-9.775zM29 83.482l28.936-16.669.032 33.393m-28.904 2.834 4.881-2.834-4.88-2.832zm0 6.94V90.433l16.932 9.773zm0 6.952v-33.45l28.904 16.724zM58 13.915l-4.882 2.833L58 19.582zm0-6.94v19.548l-16.932-9.774zm0-6.951v33.448L29.096 16.748m0-13.89 4.88-2.833-4.88-2.833zm0 6.94V-9.749L46.026.025zm0 6.95v-33.449L58 .024zM16.94 23.696l-4.894-2.81-.014 5.643zm6.01-3.47L6.02 29.998v-19.55zM0 33.472.033.08 28.97 16.75m-5.99-29.92L6.053-3.393l16.93 9.776zm5.99 29.92L29-16.644.033.08m40.966 23.615.013 5.643 4.893-2.81zm-6.01-3.47 16.928 9.774-16.93 9.775zm22.947 13.248L29 50.143l-.031-33.394M16.97 43.197l-.013-5.643-4.894 2.81zm6.01 3.47L6.053 36.894l16.93-9.776zM29 50.143.032 33.419l28.936-16.67m16.937 57.008-4.893-2.81-.014 5.644zm6.01-3.47L34.988 80.06V60.51zM29 64.035l-4.88 2.832L29 69.7zm0-6.942v19.549l-16.93-9.775zM.097 66.867 29 50.143v33.449m16.938-43.228-.013 5.644-4.894-2.811zm6.01-3.47L35.02 46.667l16.931 9.777zM29 50.143l28.936 16.67.032-33.394M.097 52.975l4.88-2.832-4.88-2.833zm0 6.942V40.368l16.931 9.775zm0 6.95V33.42"/></svg>